<?xml version="1.0" encoding="UTF-8" standalone="no"?>
<!DOCTYPE svg PUBLIC "-//W3C//DTD SVG 1.1//EN" "http://www.w3.org/Graphics/SVG/1.1/DTD/svg11.dtd">
<svg width="100%" height="100%" viewBox="0 0 500 500" version="1.1" xmlns="http://www.w3.org/2000/svg" xmlns:xlink="http://www.w3.org/1999/xlink" xml:space="preserve" xmlns:serif="http://www.serif.com/" style="fill-rule:evenodd;clip-rule:evenodd;stroke-linejoin:round;stroke-miterlimit:2;">
    <g transform="matrix(1,0,0,1,-5,-78)">
        <path d="M102,280L102,320L7,320L33,300L7,280L102,280Z" style="fill:white;"/>
    </g>
    <g transform="matrix(-1,0,0,1,505,-78)">
        <path d="M102,280L102,320L7,320L33,300L7,280L102,280Z" style="fill:white;"/>
    </g>
    <g transform="matrix(1,0,0,1,-6.5,-45)">
        <path d="M77,419L93,386L125,398C126.551,391.824 127.203,385.489 125,379L72,355L78,390L44,404L77,419Z" style="fill:rgb(255,0,0);"/>
        <path d="M429,355L423,389L456,404L423,419L408,387L376,398C372.334,392.352 372.626,385.604 376,378L429,355Z" style="fill:rgb(255,0,0);"/>
        <path d="M93,392L70,445C120.61,469.743 181.488,478.127 250,479C311.574,479.216 372.2,472.234 429,445L407,392C353.382,413.562 301.231,421.921 250,422C195.836,422.374 143.584,411.915 93,392" style="fill:rgb(255,0,0);"/>
    </g>
    <g transform="matrix(1,0,0,-1,-6.5,513.005)">
        <path d="M77,419L93,386L125,398C126.551,391.824 127.203,385.489 125,379L72,355L78,390L44,404L77,419Z" style="fill:rgb(255,0,0);"/>
        <path d="M429,355L423,389L456,404L423,419L408,387L376,398C372.334,392.352 372.626,385.604 376,378L429,355Z" style="fill:rgb(255,0,0);"/>
        <path d="M93,392L70,445C120.61,469.743 181.488,478.127 250,479C311.574,479.216 372.2,472.234 429,445L407,392C353.382,413.562 301.231,421.921 250,422C195.836,422.374 143.584,411.915 93,392" style="fill:rgb(255,0,0);"/>
    </g>
    <g transform="matrix(1,0,0,1,8,-68)">
        <text x="183px" y="405.352px" style="font-family:'OpenSans-ExtraBold', 'Open Sans', sans-serif;font-weight:800;font-size:36px;fill:white;">YEARS</text>
    </g>
    <g transform="matrix(1,0,0,1,-21.5,-69)">
        <text x="146px" y="364.953px" style="font-family:'OpenSans-ExtraBold', 'Open Sans', sans-serif;font-weight:800;font-size:200px;fill:white;">40</text>
    </g>
    <g transform="matrix(1,0,0,1,3,0)">
        <g transform="matrix(0.948301,-0.317373,0.317373,0.948301,-24.3423,41.4065)">
            <text x="114.923px" y="95.42px" style="font-family:'OpenSans-Bold', 'Open Sans', sans-serif;font-weight:700;font-size:36px;fill:white;">C</text>
        </g>
        <g transform="matrix(0.982986,-0.183678,0.183678,0.982986,-13.9116,26.632)">
            <text x="136.804px" y="88.41px" style="font-family:'OpenSans-Bold', 'Open Sans', sans-serif;font-weight:700;font-size:36px;fill:white;">E</text>
        </g>
        <g transform="matrix(0.992375,-0.123256,0.123256,0.992375,-9.24682,19.9499)">
            <text x="156.617px" y="84.71px" style="font-family:'OpenSans-Bold', 'Open Sans', sans-serif;font-weight:700;font-size:36px;fill:white;">L</text>
        </g>
        <g transform="matrix(0.996497,-0.0836288,0.0836288,0.996497,-6.25438,15.0732)">
            <text x="176.797px" y="82.193px" style="font-family:'OpenSans-Bold', 'Open Sans', sans-serif;font-weight:700;font-size:36px;fill:white;">E</text>
        </g>
        <g transform="matrix(0.998836,-0.0482262,0.0482262,0.998836,-3.65123,9.58927)">
            <text x="196.898px" y="80.461px" style="font-family:'OpenSans-Bold', 'Open Sans', sans-serif;font-weight:700;font-size:36px;fill:white;">B</text>
        </g>
        <g transform="matrix(0.9999,-0.0141464,0.0141464,0.9999,-1.09925,3.13457)">
            <text x="221.02px" y="79.268px" style="font-family:'OpenSans-Bold', 'Open Sans', sans-serif;font-weight:700;font-size:36px;fill:white;">R</text>
        </g>
        <g transform="matrix(0.999886,0.01512,-0.01512,0.999886,1.22096,-3.69251)">
            <text x="244.809px" y="78.9px" style="font-family:'OpenSans-Bold', 'Open Sans', sans-serif;font-weight:700;font-size:36px;fill:white;">A</text>
        </g>
        <g transform="matrix(0.998923,0.0464076,-0.0464076,0.998923,3.97081,-12.4302)">
            <text x="269.69px" y="79.303px" style="font-family:'OpenSans-Bold', 'Open Sans', sans-serif;font-weight:700;font-size:36px;fill:white;">T</text>
        </g>
        <g transform="matrix(0.997446,0.0714216,-0.0714216,0.997446,6.47833,-20.5408)">
            <text x="290.471px" y="80.319px" style="font-family:'OpenSans-Bold', 'Open Sans', sans-serif;font-weight:700;font-size:36px;fill:white;">I</text>
        </g>
        <g transform="matrix(0.99402,0.109202,-0.109202,0.99402,10.653,-32.5381)">
            <text x="302.399px" y="80.993px" style="font-family:'OpenSans-Bold', 'Open Sans', sans-serif;font-weight:700;font-size:36px;fill:white;">N</text>
        </g>
        <g transform="matrix(0.982837,0.184475,-0.184475,0.982837,21.2161,-59.714)">
            <text x="331.527px" y="84.164px" style="font-family:'OpenSans-Bold', 'Open Sans', sans-serif;font-weight:700;font-size:36px;fill:white;">G</text>
        </g>
    </g>
    <g transform="matrix(-0.012549,-0.999921,0.999921,-0.012549,-348.63,630.4)">
        <g transform="matrix(-0.210179,0.977663,-0.977663,-0.210179,743.84,374.369)">
            <text x="220.7px" y="487.646px" style="font-family:'OpenSans-Bold', 'Open Sans', sans-serif;font-weight:700;font-size:36px;fill:white;">I</text>
        </g>
        <g transform="matrix(-0.169799,0.985479,-0.985479,-0.169799,747.047,369.17)">
            <text x="218.023px" y="499.254px" style="font-family:'OpenSans-Bold', 'Open Sans', sans-serif;font-weight:700;font-size:36px;fill:white;">N</text>
        </g>
        <g transform="matrix(-0.097427,0.995243,-0.995243,-0.097427,767.362,378.915)">
            <text x="211.864px" y="537.413px" style="font-family:'OpenSans-Bold', 'Open Sans', sans-serif;font-weight:700;font-size:36px;fill:white;">B</text>
        </g>
        <g transform="matrix(-0.0473081,0.99888,-0.99888,-0.0473081,780.199,378.809)">
            <text x="209.453px" y="561.466px" style="font-family:'OpenSans-Bold', 'Open Sans', sans-serif;font-weight:700;font-size:36px;fill:white;">U</text>
        </g>
        <g transform="matrix(0.00108648,0.999999,-0.999999,0.00108648,796.649,379.736)">
            <text x="208.25px" y="588.626px" style="font-family:'OpenSans-Bold', 'Open Sans', sans-serif;font-weight:700;font-size:36px;fill:white;">S</text>
        </g>
        <g transform="matrix(0.0335041,0.999439,-0.999439,0.0335041,809.476,379.858)">
            <text x="208.335px" y="608.462px" style="font-family:'OpenSans-Bold', 'Open Sans', sans-serif;font-weight:700;font-size:36px;fill:white;">I</text>
        </g>
        <g transform="matrix(0.0751077,0.997175,-0.997175,0.0751077,811.535,365.833)">
            <text x="208.556px" y="620.396px" style="font-family:'OpenSans-Bold', 'Open Sans', sans-serif;font-weight:700;font-size:36px;fill:white;">N</text>
        </g>
        <g transform="matrix(0.125191,0.992133,-0.992133,0.125191,828.901,359.041)">
            <text x="210.853px" y="649.554px" style="font-family:'OpenSans-Bold', 'Open Sans', sans-serif;font-weight:700;font-size:36px;fill:white;">E</text>
        </g>
        <g transform="matrix(0.163551,0.986535,-0.986535,0.163551,839.002,349.549)">
            <text x="213.366px" y="669.547px" style="font-family:'OpenSans-Bold', 'Open Sans', sans-serif;font-weight:700;font-size:36px;fill:white;">S</text>
        </g>
        <g transform="matrix(0.202515,0.979279,-0.979279,0.202515,847.621,337.467)">
            <text x="216.613px" y="689.156px" style="font-family:'OpenSans-Bold', 'Open Sans', sans-serif;font-weight:700;font-size:36px;fill:white;">S</text>
        </g>
    </g>
</svg>
