<?xml version="1.0" encoding="UTF-8" standalone="no"?>
<!DOCTYPE svg PUBLIC "-//W3C//DTD SVG 1.1//EN" "http://www.w3.org/Graphics/SVG/1.1/DTD/svg11.dtd">
<svg width="100%" height="100%" viewBox="0 0 400 600" version="1.1" xmlns="http://www.w3.org/2000/svg" xmlns:xlink="http://www.w3.org/1999/xlink" xml:space="preserve" xmlns:serif="http://www.serif.com/" style="fill-rule:evenodd;clip-rule:evenodd;stroke-linecap:round;stroke-linejoin:round;stroke-miterlimit:1.5;">
    <g transform="matrix(1,0,0,1.10956,-208,-42.245)">
        <path d="M400,57L400,559" style="fill:none;stroke:rgb(33,60,116);stroke-width:4.18px;"/>
    </g>
    <g transform="matrix(1,0,0,1,12,52)">
        <text x="30.272px" y="31.999px" style="font-family:'Oswald-SemiBold', 'Oswald';font-weight:600;font-size:16px;fill:rgb(33,60,116);">40+ Y<tspan x="65.856px " y="31.999px ">e</tspan>ars of</text>
        <text x="27.464px" y="47.999px" style="font-family:'Oswald-SemiBold', 'Oswald';font-weight:600;font-size:16px;fill:rgb(33,60,116);">Experience in</text>
        <text x="9.584px" y="63.999px" style="font-family:'Oswald-SemiBold', 'Oswald';font-weight:600;font-size:16px;fill:rgb(33,60,116);">Industrial Catering</text>
    </g>
    <g transform="matrix(1,0,0,1,12,233.193)">
        <text x="38.113px" y="23.694px" style="font-family:'Oswald-SemiBold', 'Oswald';font-weight:600;font-size:18px;fill:rgb(33,60,116);">7.36 Cr.+</text>
        <text x="18.826px" y="40.694px" style="font-family:'Oswald-SemiBold', 'Oswald';font-weight:600;font-size:18px;fill:rgb(33,60,116);">Meals Catered</text>
        <text x="40.192px" y="57.694px" style="font-family:'Oswald-SemiBold', 'Oswald';font-weight:600;font-size:18px;fill:rgb(33,60,116);">Till Date</text>
    </g>
    <g transform="matrix(1,0,0,1,233,319.5)">
        <text x="21.661px" y="21.79px" style="font-family:'Oswald-SemiBold', 'Oswald';font-weight:600;font-size:18px;fill:rgb(33,60,116);">6800 + Meals</text>
        <text x="41.749px" y="38.79px" style="font-family:'Oswald-SemiBold', 'Oswald';font-weight:600;font-size:18px;fill:rgb(33,60,116);">Catered</text>
        <text x="42.064px" y="55.79px" style="font-family:'Oswald-SemiBold', 'Oswald';font-weight:600;font-size:18px;fill:rgb(33,60,116);">Per Day</text>
    </g>
    <g transform="matrix(1,0,0,1,12,417)">
        <text x="25.927px" y="19.027px" style="font-family:'Oswald-SemiBold', 'Oswald';font-weight:600;font-size:18px;fill:rgb(33,60,116);">Own Fleet of</text>
        <text x="40.111px" y="36.027px" style="font-family:'Oswald-SemiBold', 'Oswald';font-weight:600;font-size:18px;fill:rgb(33,60,116);">V<tspan x="49.399px " y="36.027px ">e</tspan>hicles</text>
    </g>
    <g transform="matrix(1,0,0,1,233,505)">
        <text x="22.453px" y="22.731px" style="font-family:'Oswald-SemiBold', 'Oswald';font-weight:600;font-size:18px;fill:rgb(33,60,116);">10 Y<tspan x="52.297px " y="22.731px ">e</tspan>ars Avg.</text>
        <text x="5.182px" y="40.731px" style="font-family:'Oswald-SemiBold', 'Oswald';font-weight:600;font-size:18px;fill:rgb(33,60,116);">Contract Dura<tspan x="106.648px " y="40.731px ">t</tspan>ion</text>
    </g>
    <g transform="matrix(1,0,0,1,-206,6)">
        <text x="464.441px" y="173.29px" style="font-family:'Oswald-SemiBold', 'Oswald';font-weight:600;font-size:18px;fill:rgb(33,60,116);">100+ Clients</text>
        <text x="460.094px" y="191.29px" style="font-family:'Oswald-SemiBold', 'Oswald';font-weight:600;font-size:18px;fill:rgb(33,60,116);">Served So Far</text>
    </g>
    <g transform="matrix(1,0,0,0.972973,-31,424.243)">
        <ellipse cx="223" cy="101.5" rx="18" ry="18.5" style="fill:rgb(33,60,116);"/>
    </g>
    <g transform="matrix(1,0,0,0.972973,-31,-5.75676)">
        <ellipse cx="223" cy="101.5" rx="18" ry="18.5" style="fill:rgb(33,60,116);"/>
    </g>
    <g transform="matrix(1,0,0,0.972973,-31,338.243)">
        <ellipse cx="223" cy="101.5" rx="18" ry="18.5" style="fill:rgb(33,60,116);"/>
    </g>
    <g transform="matrix(1,0,0,0.972973,-31,252.243)">
        <ellipse cx="223" cy="101.5" rx="18" ry="18.5" style="fill:rgb(33,60,116);"/>
    </g>
    <g transform="matrix(1,0,0,0.972973,-31,166.243)">
        <ellipse cx="223" cy="101.5" rx="18" ry="18.5" style="fill:rgb(33,60,116);"/>
    </g>
    <g transform="matrix(1,0,0,0.972973,-31,80.2432)">
        <ellipse cx="223" cy="101.5" rx="18" ry="18.5" style="fill:rgb(33,60,116);"/>
    </g>
</svg>
